<?xml version="1.0" standalone="no"?>
<!DOCTYPE svg PUBLIC "-//W3C//DTD SVG 1.1//EN" "http://www.w3.org/Graphics/SVG/1.1/DTD/svg11.dtd" >
<svg xmlns="http://www.w3.org/2000/svg">
<metadata>
This is a custom SVG webfont generated by Font Squirrel.
Copyright   : c 20012011 Typodermic Fonts design Ray Larabie kerning  languages Chikako Larabie license agreement typodermicfontscompageslicense
Designer    : Ray Larabie
Foundry     : Ray Larabie
</metadata>
<defs>
<font id="SteelfishRegularItalic" horiz-adv-x="573" >
<font-face units-per-em="2048" ascent="1743" descent="-305" />
<missing-glyph horiz-adv-x="278" />
<glyph unicode=" "  horiz-adv-x="278" />
<glyph unicode="&#x09;" horiz-adv-x="278" />
<glyph unicode="&#xa0;" horiz-adv-x="278" />
<glyph unicode="!" horiz-adv-x="327" d="M84 0l31 223h159l-30 -223h-160zM158 326l67 700l92 660h164l-92 -658l-131 -702h-100z" />
<glyph unicode="&#x22;" horiz-adv-x="526" d="M264 1219l10 284l25 183h143l-24 -183l-72 -284h-82zM520 1219l10 284l25 183h143l-24 -183l-72 -284h-82z" />
<glyph unicode="#" horiz-adv-x="808" d="M68 0l184 606h-125l18 133h148l78 252h-154l19 133h176l170 562h112l-174 -562h172l172 562h111l-174 -562h123l-19 -133h-143l-80 -252h147l-18 -133h-170l-184 -606h-109l187 606h-175l-186 -606h-106zM401 739h172l80 252h-174z" />
<glyph unicode="$" horiz-adv-x="585" d="M98 223q0 31 6 72l46 324h118l-35 -254q-10 -72 -10 -111q0 -82 62 -92l84 610l-46 54q-30 36 -40.5 49.5t-27.5 39t-23.5 43t-11.5 42t-5 53.5q0 47 8 96l35 242q37 254 236 272l16 117h63l-16 -117q160 -14 160 -193q0 -37 -6 -79l-39 -273h-117l35 244q6 37 6 68 q0 84 -64 94l-83 -596q2 -2 26.5 -24.5t29.5 -28l24.5 -27t25.5 -31.5l19 -33q13 -23 17.5 -41t8.5 -43.5t4 -52.5q0 -45 -10 -127l-31 -225q-35 -254 -237 -277l-19 -124h-63l18 126q-164 19 -164 203zM340 1108q0 -78 57 -137l78 553q-82 -14 -98 -125l-35 -252 q-2 -14 -2 -39zM342 162q78 12 94 121l31 221q6 49 6 86q0 90 -51 143z" />
<glyph unicode="%" horiz-adv-x="983" d="M63 0l977 1686h105l-975 -1686h-107zM201 965q0 20 2 32l82 576q18 143 157 143q121 0 121 -110q0 -20 -2 -33l-82 -576q-23 -143 -160 -143q-118 0 -118 111zM295 985q0 -37 39 -37q45 0 51 47l82 580q0 47 -39 47q-43 0 -49 -47zM651 80q0 20 2 33l82 575 q18 143 158 143q121 0 121 -110q0 -20 -2 -33l-82 -575q-23 -143 -160 -144q-119 0 -119 111zM745 100q0 -37 39 -37q45 0 52 48l82 579q0 47 -39 47q-43 0 -50 -47z" />
<glyph unicode="&#x26;" horiz-adv-x="770" d="M90 205q0 49 10 127l17 117q20 139 66 233t149 205q-49 229 -49 332q0 57 8 104l14 102q20 145 80.5 210t177.5 65q184 0 185 -195q0 -8 -1.5 -23.5t-2.5 -27.5t-3 -24l-18 -119q-20 -127 -76.5 -226.5t-165.5 -224.5l117 -553q59 121 76 252l8 66h119l-10 -72 q-35 -250 -148 -401q16 -16 49 -17q41 0 66 27l-21 -146q-43 -25 -104 -24q-70 0 -105 45q-74 -55 -196 -55q-133 0 -187.5 53t-54.5 170zM246 252q0 -68 27.5 -96.5t91.5 -28.5q76 0 122 35l-116 567q-45 -55 -64.5 -109.5t-36.5 -164.5l-18 -121q-6 -47 -6 -82zM418 1225 q0 -106 28 -217q66 78 106 151.5t50 167.5l10 86q4 37 4 49q0 88 -67 88q-92 0 -111 -129l-14 -106q-6 -45 -6 -90z" />
<glyph unicode="'" horiz-adv-x="270" d="M264 1219l10 284l25 183h143l-24 -183l-72 -284h-82z" />
<glyph unicode="(" horiz-adv-x="524" d="M170 92q0 49 8 98l182 1305q27 184 115 269t246 85h16l-14 -114h-16q-201 0 -234 -240l-182 -1305q-6 -39 -6 -71q0 -170 170 -170h16l-16 -113h-17q-268 0 -268 256z" />
<glyph unicode=")" horiz-adv-x="524" d="M127 -164l16 113h17q201 0 233 241l182 1305q4 25 5 68q0 172 -168 172h-17l15 114h16q268 0 268 -258q0 -43 -6 -96l-182 -1305q-27 -184 -116 -269t-247 -85h-16z" />
<glyph unicode="*" horiz-adv-x="686" d="M223 1423l31 93l244 -93l-15 263h101l-15 -263l246 95l29 -95l-252 -69l164 -203l-78 -57l-146 219l-141 -219l-78 57l162 203z" />
<glyph unicode="+" horiz-adv-x="946" d="M186 801l17 117h340l49 337h117l-50 -337h340l-16 -117h-340l-47 -342h-117l47 342h-340z" />
<glyph unicode="," horiz-adv-x="274" d="M66 -123l10 68h12q33 0 39 37l10 63h-67l28 211h148l-37 -264q-16 -115 -127 -115h-16z" />
<glyph unicode="-" horiz-adv-x="372" d="M137 788l17 121h323l-16 -121h-324z" />
<glyph unicode="." horiz-adv-x="272" d="M63 0l35 256h146l-35 -256h-146z" />
<glyph unicode="/" horiz-adv-x="493" d="M12 0l588 1686h115l-588 -1686h-115z" />
<glyph unicode="0" horiz-adv-x="671" d="M94 199q0 33 6 69l162 1149q41 287 311 287q238 0 238 -217q0 -45 -4 -70l-162 -1149q-41 -287 -313 -286q-238 0 -238 217zM254 229q0 -96 100 -96q119 0 138 131l161 1155q2 12 2 33q0 98 -102 98q-117 0 -135 -131l-162 -1155q-2 -12 -2 -35z" />
<glyph unicode="1" horiz-adv-x="360" d="M125 0l197 1409h-91l23 152h45q61 0 72 75l6 50h137l-235 -1686h-154z" />
<glyph unicode="2" horiz-adv-x="632" d="M55 0l43 309q20 154 60.5 243t154.5 218q170 188 219.5 266t65.5 195l25 180q2 12 2 37q0 98 -93 98q-61 0 -88.5 -32.5t-37.5 -104.5l-41 -291h-154l41 291q20 154 94 224.5t207 70.5q231 0 231 -219q0 -35 -6 -76l-26 -188q-18 -129 -78 -234.5t-174 -230.5 q-143 -156 -185.5 -235t-60.5 -212l-23 -155h371l-20 -154h-527z" />
<glyph unicode="3" horiz-adv-x="634" d="M86 205q0 39 4 61l47 332h158l-47 -332q-4 -29 -4 -37q0 -94 92 -94q109 0 129 133l53 385q4 37 4 49q0 45 -22.5 64.5t-75.5 19.5h-80l21 146h88q59 0 85.5 31.5t36.5 101.5l48 348q4 37 4 49q0 43 -21.5 63.5t-70.5 20.5q-59 0 -88 -31.5t-39 -101.5l-41 -297h-154 l41 297q20 152 94 221.5t207 69.5q115 0 169 -49t54 -158q0 -39 -6 -86l-51 -362q-23 -147 -148 -191q102 -27 103 -139q0 -14 -4 -51l-56 -400q-18 -133 -96 -209.5t-207 -76.5q-113 0 -170 59.5t-57 163.5z" />
<glyph unicode="4" horiz-adv-x="653" d="M68 346l20 135l547 1205h147l-168 -1192h82l-20 -148h-88l-41 -346h-144l48 346h-383zM227 494h244l117 794z" />
<glyph unicode="5" horiz-adv-x="647" d="M96 193q0 35 6 71l50 354h151l-49 -354q-2 -12 -2 -35q0 -94 94 -94q109 0 127 131l76 545q0 6 1 14.5t1 12.5q0 92 -98 92q-96 0 -138 -103l-135 7l139 852h492l-23 -158h-350l-94 -543q61 84 188 84q172 0 173 -182q0 -35 -7 -78l-75 -545q-39 -283 -299 -282 q-228 0 -228 211z" />
<glyph unicode="6" horiz-adv-x="653" d="M96 203q0 41 4 63l162 1151q18 135 96 211t207 76q221 0 221 -217q0 -45 -4 -70l-41 -291h-149l41 291q2 12 2 33q0 96 -90 96q-109 0 -127 -129l-64 -444q61 86 176 86q92 0 136.5 -45t44.5 -142q0 -37 -6 -81l-74 -523q-18 -135 -97 -210.5t-210 -75.5q-228 0 -228 221 zM256 244q0 -109 90 -109q109 0 129 133l68 488q4 37 4 51q0 102 -92 102q-100 0 -123 -100l-72 -504q-4 -22 -4 -61z" />
<glyph unicode="7" horiz-adv-x="589" d="M141 0q141 993 486 1528h-385l22 158h533l-21 -146q-180 -305 -293.5 -668.5t-185.5 -871.5h-156z" />
<glyph unicode="8" horiz-adv-x="645" d="M88 197q0 43 4 65l58 404q23 162 153 204q-88 37 -88 144q0 14 4 51l47 348q39 291 291 291q215 0 215 -211q0 -37 -6 -80l-47 -348q-23 -152 -139 -195q100 -35 100 -153q0 -14 -4 -51l-58 -404q-37 -281 -303 -280q-227 0 -227 215zM244 225q0 -90 94 -90 q111 0 129 129l57 412q2 10 2 26q0 84 -98 84q-109 0 -123 -110l-57 -412q-4 -29 -4 -39zM356 1014q0 -82 93 -82q111 0 124 112l52 369q4 41 4 51q0 45 -20.5 63.5t-71.5 18.5q-61 0 -89 -29.5t-38 -103.5l-52 -369q-2 -12 -2 -30z" />
<glyph unicode="9" horiz-adv-x="653" d="M94 207q0 39 4 61l41 291h152l-41 -291q-2 -12 -2 -32q0 -100 92 -101q109 0 129 133l66 469q-55 -84 -175 -84q-92 0 -135 43t-43 138q0 39 6 86l70 497q39 287 301 287q231 0 232 -221q0 -18 -5 -64l-161 -1151q-18 -135 -97 -210.5t-211 -75.5q-109 0 -166 59.5 t-57 165.5zM340 897q0 -90 94 -90q102 0 125 100l72 508q2 14 2 37q0 94 -94 94q-59 0 -88 -28.5t-39 -102.5l-70 -487q-2 -11 -2 -31z" />
<glyph unicode=":" horiz-adv-x="272" d="M63 0l35 256h146l-35 -256h-146zM168 750l35 254h145l-35 -254h-145z" />
<glyph unicode=";" horiz-adv-x="274" d="M66 -123l10 68h12q33 0 39 37l10 63h-67l28 211h148l-37 -264q-16 -115 -127 -115h-16zM168 750l35 254h145l-35 -254h-145z" />
<glyph unicode="&#x3c;" horiz-adv-x="946" d="M184 786l21 144l833 262l-16 -119l-707 -211l646 -223l-17 -117z" />
<glyph unicode="=" horiz-adv-x="946" d="M160 608l16 119h797l-17 -119h-796zM215 991l16 119h797l-16 -119h-797z" />
<glyph unicode="&#x3e;" horiz-adv-x="946" d="M147 522l17 117l710 223l-649 211l17 119l759 -262l-20 -144z" />
<glyph unicode="?" horiz-adv-x="612" d="M205 1118l41 295q20 150 93 220.5t206 70.5q223 0 223 -213q0 -37 -6 -80l-25 -176q-18 -125 -51 -202t-96 -138q-84 -82 -105.5 -127t-38.5 -154l-32 -231h-146l31 227q14 117 48 188.5t106 143.5q70 70 91 118t40 175l24 178q4 33 4 43q0 90 -88 90q-109 0 -127 -131 l-43 -297h-149zM215 0l35 256h145l-35 -256h-145z" />
<glyph unicode="@" horiz-adv-x="1054" d="M90 166q0 51 10 133l101 715q35 252 160.5 361.5t369.5 109.5q203 0 300 -80t97 -248q0 -31 -8 -104l-88 -625q-14 -98 -71.5 -159.5t-139.5 -61.5q-55 0 -93 24.5t-48 63.5q-12 -33 -50 -56.5t-91 -23.5q-145 0 -146 139q0 16 4 54l64 444q16 121 61 165t135 44 q88 0 109 -78q8 45 14 68h76l-90 -641q0 -4 -1 -12.5t-1 -12.5q0 -76 65 -76q78 0 95 113l90 633q4 45 4 65q0 242 -303 242q-193 0 -282 -91t-116 -286l-96 -690q-8 -53 -8 -76q0 -166 77 -234.5t245 -68.5q199 0 283.5 53.5t84.5 159.5h103q2 -6 2 -18q0 -143 -124 -232.5 t-386 -89.5q-199 0 -303.5 87t-104.5 290zM502 393q0 -80 80 -80q61 0 86 68l67 479q0 47 -14 67.5t-49 20.5q-92 0 -107 -102l-59 -412q-4 -33 -4 -41z" />
<glyph unicode="A" horiz-adv-x="686" d="M25 0l467 1686h182l-17 -1686h-155l2 283h-252l-76 -283h-151zM291 426h215q8 573 16 864z" />
<glyph unicode="B" horiz-adv-x="665" d="M76 0l235 1685h269q113 0 164 -49t51 -153q0 -41 -7 -86l-47 -338q-23 -158 -129 -187q100 -23 101 -143q0 -29 -2 -43l-58 -401q-41 -285 -309 -285h-268zM252 154h113q111 0 129 131l53 374q4 37 4 50q0 45 -21.5 65.5t-72.5 20.5h-115zM360 932h115q55 0 82 26.5 t37 85.5l49 355q4 33 4 45q0 84 -90 84h-113z" />
<glyph unicode="C" horiz-adv-x="632" d="M94 197q0 33 6 69l160 1147q39 291 309 291q213 0 213 -211q0 -4 -2 -31.5t-4 -44.5l-43 -299h-141l43 297q2 16 2 43q0 88 -88 88q-111 0 -129 -131l-162 -1147q-2 -12 -2 -37q0 -96 94 -96q55 0 84 32t39 101l49 350h142l-50 -348q-23 -147 -91 -217.5t-195 -70.5 q-234 0 -234 215z" />
<glyph unicode="D" horiz-adv-x="667" d="M76 0l235 1686h262q229 0 230 -224q0 -43 -4 -65l-156 -1110q-41 -287 -305 -287h-262zM252 154h106q111 0 129 133l156 1108q2 12 2 32q0 100 -94 101h-107z" />
<glyph unicode="E" d="M76 0l235 1686h447l-23 -158h-291l-82 -592h205l-22 -156h-205l-88 -626h301l-21 -154h-456z" />
<glyph unicode="F" horiz-adv-x="552" d="M76 0l235 1686h457l-23 -158h-301l-84 -600h207l-22 -156h-207l-107 -772h-155z" />
<glyph unicode="G" horiz-adv-x="659" d="M94 195q0 35 6 73l162 1147q41 289 305 289q221 0 221 -217q0 -47 -4 -72l-43 -297h-139l43 297q2 12 2 37q0 94 -100 94q-111 0 -129 -131l-162 -1147q-2 -10 -2 -30q0 -102 92 -103q113 0 137 121l54 383h-129l20 147h279l-111 -796h-25l-39 92q-63 -100 -219 -100 q-219 0 -219 213z" />
<glyph unicode="H" horiz-adv-x="679" d="M76 0l235 1686h156l-105 -752h218l104 752h156l-236 -1686h-155l108 780h-217l-109 -780h-155z" />
<glyph unicode="I" horiz-adv-x="315" d="M80 0l235 1686h156l-235 -1686h-156z" />
<glyph unicode="J" horiz-adv-x="444" d="M20 2l21 156q37 -14 96 -15q100 0 119 131l199 1412h155l-198 -1412q-41 -287 -295 -286q-64 0 -97 14z" />
<glyph unicode="K" horiz-adv-x="714" d="M76 0l235 1686h156l-102 -728l383 728h172l-428 -779l213 -907h-175l-184 829l-115 -829h-155z" />
<glyph unicode="L" horiz-adv-x="552" d="M76 0l235 1686h156l-215 -1532h301l-21 -154h-456z" />
<glyph unicode="M" horiz-adv-x="923" d="M72 0l235 1686h209l-6 -1317l362 1317h215l-235 -1686h-145l69 510l109 729l-357 -1239h-137l-6 1239l-100 -729l-70 -510h-143z" />
<glyph unicode="N" horiz-adv-x="722" d="M72 0l235 1686h187l84 -1235l172 1235h137l-236 -1686h-155l-119 1231l-170 -1231h-135z" />
<glyph unicode="O" horiz-adv-x="657" d="M94 199q0 33 6 69l162 1149q41 287 303 287q231 0 232 -217q0 -45 -4 -70l-162 -1149q-41 -287 -307 -286q-230 0 -230 217zM254 233q0 -98 92 -98q111 0 129 133l162 1149q2 12 2 35q0 94 -94 94q-109 0 -127 -129l-162 -1149q-2 -12 -2 -35z" />
<glyph unicode="P" horiz-adv-x="659" d="M76 0l235 1686h262q252 0 252 -226q0 -37 -6 -80l-39 -276q-23 -158 -102.5 -230.5t-226.5 -72.5h-109l-111 -801h-155zM365 952h108q133 0 154 148l39 280q4 29 4 43q0 104 -119 105h-107z" />
<glyph unicode="Q" horiz-adv-x="657" d="M98 223q0 35 6 72l158 1122q41 287 303 287q231 0 232 -217q0 -45 -4 -70l-158 -1122q-18 -125 -85 -200t-181 -83q0 -2 -1 -6t-1 -6q0 -74 98 -74q76 0 125 51l-19 -124q-45 -49 -143 -50q-84 0 -126 48.5t-42 125.5q0 25 2 37q-164 27 -164 209zM256 252q0 -94 92 -94 q111 0 129 129l160 1130q2 12 2 33q0 96 -94 96q-109 0 -127 -129l-160 -1130q-2 -12 -2 -35z" />
<glyph unicode="R" horiz-adv-x="677" d="M76 0l235 1686h256q129 0 192.5 -52.5t63.5 -169.5q0 -35 -6 -82l-47 -335q-29 -184 -160 -248q18 -260 31 -799h-170q0 512 -12 766q-12 -2 -37 -2h-84l-107 -764h-155zM358 905h103q72 0 106.5 33t44.5 106l45 318q4 45 5 61q0 55 -26 80t-91 25h-101z" />
<glyph unicode="S" horiz-adv-x="634" d="M84 193q0 31 6 67l51 358h150l-47 -335q-4 -33 -4 -45q0 -102 92 -103q109 0 127 125q41 285 41 315q0 51 -33 99q-31 45 -105.5 131t-117.5 149q-35 49 -35 115q0 35 45 356q39 279 301 279q117 0 170 -49t53 -150q0 -37 -6 -80l-43 -307h-145l41 287q4 33 4 47 q0 94 -90 94q-109 0 -127 -121q-41 -287 -41 -307q0 -37 24 -74q37 -55 111 -142t106 -132q47 -68 47 -152q0 -41 -45 -358q-41 -279 -301 -278q-229 0 -229 211z" />
<glyph unicode="T" horiz-adv-x="575" d="M211 0l213 1528h-188l22 158h530l-22 -158h-188l-213 -1528h-154z" />
<glyph unicode="U" horiz-adv-x="667" d="M100 197q0 33 6 71l199 1418h156l-199 -1418q-2 -12 -2 -35q0 -98 92 -98q109 0 127 133l199 1418h156l-199 -1418q-39 -287 -305 -286q-230 0 -230 215z" />
<glyph unicode="V" horiz-adv-x="692" d="M233 0l27 1686h162q-20 -1075 -43 -1418q92 399 366 1418h156l-459 -1686h-209z" />
<glyph unicode="W" horiz-adv-x="1077" d="M213 0l47 1686h162q-27 -913 -57 -1326q147 629 331 1326h156q-33 -975 -59 -1326l331 1326h164l-448 -1686h-189q4 242 24.5 672t31.5 577q-125 -578 -304 -1249h-190z" />
<glyph unicode="X" horiz-adv-x="694" d="M10 0l371 899l-98 787h166q39 -315 51 -605q51 172 221 605h162l-324 -783l125 -903h-168q-23 164 -46.5 409.5t-25.5 321.5q-115 -342 -274 -731h-160z" />
<glyph unicode="Y" horiz-adv-x="679" d="M254 1686h164q49 -406 63 -695q92 287 262 695h152l-377 -930l-104 -756h-158l104 756z" />
<glyph unicode="Z" horiz-adv-x="628" d="M51 0l21 156l567 1378h-358l20 152h514l-20 -142l-562 -1386h367l-20 -158h-529z" />
<glyph unicode="[" horiz-adv-x="505" d="M127 -164l283 2013h309l-14 -114h-197l-252 -1786h197l-17 -113h-309z" />
<glyph unicode="\" horiz-adv-x="493" d="M248 1686h114l117 -1686h-114z" />
<glyph unicode="]" horiz-adv-x="505" d="M127 -164l16 113h197l252 1786h-197l15 114h309l-283 -2013h-309z" />
<glyph unicode="^" horiz-adv-x="643" d="M221 1038l266 648h142l82 -648h-113l-55 521l-209 -521h-113z" />
<glyph unicode="_" horiz-adv-x="608" d="M-33 -221l15 104h610l-14 -104h-611z" />
<glyph unicode="`" horiz-adv-x="563" d="M309 1673h180l187 -330h-137z" />
<glyph unicode="a" horiz-adv-x="581" d="M68 131q0 14 4 51l26 187q12 90 44 153.5t89.5 108.5t107.5 69.5t140 59.5l39 276q2 12 2 33q0 78 -80 78q-53 0 -75.5 -26.5t-30.5 -84.5l-39 -266h-125l39 268q37 250 256 250q193 0 192 -188q0 -20 -4 -62l-127 -893q-10 -72 -10 -116q0 -20 2 -29h-129q-2 8 -2 27 q0 12 4 49q-66 -94 -166 -94q-157 -1 -157 149zM213 197q0 -78 84 -78q72 0 102 80l64 448q-123 -41 -168 -102.5t-62 -186.5l-18 -135q-2 -10 -2 -26z" />
<glyph unicode="b" horiz-adv-x="620" d="M76 0l235 1686h142l-68 -480q66 82 166 82q80 0 119 -38t39 -124q0 -33 -7 -71l-114 -811q-18 -133 -76.5 -195.5t-167.5 -62.5q-115 0 -158 108q-10 -43 -34 -94h-76zM248 219q16 -84 96 -84q47 0 71.5 24.5t33.5 82.5l112 802q2 10 2 27q0 70 -78 70q-82 0 -120 -82z " />
<glyph unicode="c" horiz-adv-x="579" d="M92 180q0 39 4 60l111 786q18 121 86.5 191.5t181.5 70.5q188 0 189 -194q0 -43 -5 -66l-38 -274h-127l38 276q2 10 3 29q0 84 -80 84q-94 0 -111 -115l-111 -788q-2 -10 -2 -29q0 -86 80 -86q94 0 111 113l39 280h131l-39 -282q-16 -117 -83 -185.5t-179 -68.5 q-98 0 -148.5 52t-50.5 146z" />
<glyph unicode="d" horiz-adv-x="620" d="M88 156q0 31 6 67l117 832q16 123 69.5 178t149.5 55q100 0 141 -82l68 480h139l-235 -1686h-119q0 29 8 94q-63 -109 -190 -108q-154 0 -154 170zM236 209q0 -74 75 -74q80 0 123 84l117 842q-18 84 -98 84q-47 0 -71 -24.5t-32 -80.5l-112 -798q-2 -13 -2 -33z" />
<glyph unicode="e" d="M90 170q0 31 6 68l111 790q37 260 256 260q195 0 194 -194q0 -43 -4 -66l-57 -407h-315l-54 -383q-4 -25 -4 -35q0 -78 76 -78q96 0 111 113l39 278h133l-39 -278q-37 -256 -264 -256q-189 0 -189 188zM295 723h182l43 305q2 10 2 29q0 84 -80 84q-88 0 -104 -113z" />
<glyph unicode="f" horiz-adv-x="391" d="M82 0l160 1143h-62l17 125h61l27 176q33 252 229 252q55 0 90 -13l-16 -120q-23 6 -51 6q-98 0 -115 -129l-25 -172h144l-17 -125h-143l-160 -1143h-139z" />
<glyph unicode="g" horiz-adv-x="620" d="M66 -129q0 41 4 63l8 52h127l-8 -58q-2 -10 -2 -26q0 -84 88 -84q98 0 114 110l29 211q-59 -80 -170 -80q-160 0 -160 160q0 31 6 72l107 751q33 238 213 238q123 0 162 -109q4 39 16 97h119l-187 -1334q-35 -240 -264 -239q-109 0 -155.5 44t-46.5 132zM242 262 q0 -37 17 -52t60 -15q84 0 125 81l109 771q-18 84 -102 83q-88 0 -105 -96l-102 -739q-2 -13 -2 -33z" />
<glyph unicode="h" horiz-adv-x="618" d="M76 0l235 1686h142l-68 -490q72 92 180 92q137 0 137 -158q0 -33 -6 -75l-147 -1055h-141l145 1047q2 12 2 34q0 68 -70 68q-78 0 -118 -78l-150 -1071h-141z" />
<glyph unicode="i" horiz-adv-x="301" d="M80 0l176 1268h141l-176 -1268h-141zM281 1430l34 256h142l-35 -256h-141z" />
<glyph unicode="j" horiz-adv-x="333" d="M-104 -287l18 140q31 -8 74 -9q100 0 118 129l181 1295h141l-180 -1295q-39 -268 -281 -268q-30 0 -71 8zM311 1430l35 256h141l-34 -256h-142z" />
<glyph unicode="k" horiz-adv-x="614" d="M76 0l235 1686h138l-136 -965l301 547h154l-332 -570l162 -698h-152l-143 651l-90 -651h-137z" />
<glyph unicode="l" horiz-adv-x="292" d="M76 0l235 1686h142l-236 -1686h-141z" />
<glyph unicode="m" horiz-adv-x="899" d="M76 0l176 1268h119q0 -45 -6 -94q74 115 182 114q113 0 121 -110q74 111 186 110q127 0 127 -158q0 -33 -6 -73l-148 -1057h-139l148 1055q2 10 2 28q0 66 -62 66q-59 0 -104 -78l-150 -1071h-141l147 1055q2 10 2 28q0 66 -61 66t-102 -78l-150 -1071h-141z" />
<glyph unicode="n" horiz-adv-x="618" d="M76 0l176 1268h119q0 -43 -6 -97q76 117 198 117q139 0 139 -160q0 -35 -6 -73l-147 -1055h-141l145 1047q2 12 2 34q0 68 -70 68q-78 0 -118 -78l-150 -1071h-141z" />
<glyph unicode="o" horiz-adv-x="593" d="M90 170q0 31 6 63l111 801q39 254 270 254q201 0 201 -192q0 -16 -4 -62l-111 -801q-39 -252 -270 -251q-203 0 -203 188zM229 199q0 -74 84 -74q55 0 80 27.5t33 85.5l111 792q2 12 2 35q0 78 -82 78q-53 0 -79 -29t-34 -84l-111 -797q-4 -24 -4 -34z" />
<glyph unicode="p" horiz-adv-x="620" d="M35 -285l217 1553h119q0 -47 -6 -97q61 109 188 109q152 0 152 -170q0 -43 -5 -68l-116 -829q-18 -125 -69.5 -178t-147.5 -53q-104 0 -142 77l-49 -344h-141zM246 205q8 -39 34.5 -60.5t61.5 -21.5q90 0 104 102l113 799q2 12 2 31q0 76 -78 75q-82 0 -121 -81z" />
<glyph unicode="q" horiz-adv-x="620" d="M86 141q0 31 6 72l117 829q33 238 213 238q125 0 162 -109q6 51 18 97h117l-217 -1553h-140l50 344q-68 -78 -166 -77q-82 0 -121 37.5t-39 121.5zM233 195q0 -72 76 -72q80 0 123 82l119 846q-23 84 -100 84q-88 0 -103 -107l-112 -803q-3 -12 -3 -30z" />
<glyph unicode="r" horiz-adv-x="423" d="M76 0l176 1268h119q0 -47 -6 -92q63 104 167 104q23 0 43 -8l-22 -158q-16 14 -61 14q-82 0 -127 -75l-148 -1053h-141z" />
<glyph unicode="s" horiz-adv-x="569" d="M80 158q0 25 35 266h127q-31 -213 -31 -231q0 -74 84 -74q90 0 106 102q23 158 23 178q0 55 -43 117q-25 33 -82 95.5t-80 93.5q-43 59 -43 131q0 33 25 208q18 127 82.5 185.5t177.5 58.5q106 0 151 -39t45 -127q0 -35 -34 -284h-129q31 217 30 233q0 76 -80 76 q-92 0 -106 -103q-23 -164 -23 -184q0 -47 41 -98q23 -27 79.5 -84t78.5 -88q53 -74 53 -156q0 -39 -26 -223q-33 -229 -269 -229q-192 0 -192 176z" />
<glyph unicode="t" horiz-adv-x="391" d="M109 180q0 41 4 64l127 899h-60l17 125h59l57 401h142l-58 -401h144l-17 -125h-143l-127 -899q-4 -33 -4 -45q0 -51 25.5 -74t80.5 -23q18 0 27 2l-16 -112q-25 -10 -68 -10q-190 -1 -190 198z" />
<glyph unicode="u" horiz-adv-x="614" d="M94 141q0 41 4 64l148 1063h141l-145 -1041q-2 -14 -2 -34q0 -68 65 -68q80 0 119 76l149 1067h142l-176 -1268h-121q0 27 8 92q-78 -106 -195 -106q-137 -1 -137 155z" />
<glyph unicode="v" horiz-adv-x="567" d="M199 1268h141q1 -102 1 -198q0 -430 -15 -722q63 260 256 920h135l-369 -1268h-141z" />
<glyph unicode="w" horiz-adv-x="856" d="M150 0l53 1268h133l-60 -996l256 996h138l-35 -996l235 996h134l-316 -1268h-170l37 946l-238 -946h-167z" />
<glyph unicode="x" horiz-adv-x="581" d="M14 0l279 674l-78 594h147q31 -264 41 -475q55 170 172 475h142l-242 -592l92 -676h-147q-43 342 -53 573q-82 -244 -211 -573h-142z" />
<glyph unicode="y" horiz-adv-x="567" d="M0 -285l18 142q27 -10 68 -10.5t67.5 39.5t57.5 141l-12 1241h147q0 -555 -22 -955q96 401 258 955h135l-373 -1284q-43 -147 -99.5 -213t-172.5 -66q-27 0 -72 10z" />
<glyph unicode="z" horiz-adv-x="524" d="M51 0l17 131l430 997h-285l18 140h420l-16 -131l-424 -994h281l-19 -143h-422z" />
<glyph unicode="{" horiz-adv-x="534" d="M150 842l180 196q37 39 45 99l61 444q37 268 303 268h17l-15 -114h-14q-84 0 -126 -36t-52 -120l-60 -424q-8 -66 -25.5 -104.5t-53.5 -75.5l-123 -133l86 -133q35 -57 35 -117q0 -29 -7 -66l-59 -422q-4 -33 -4 -45q0 -111 137 -110h14l-16 -113h-16q-233 0 -234 201 q0 41 4 63l64 449q4 29 4 37q0 27 -21 61z" />
<glyph unicode="|" horiz-adv-x="395" d="M115 -164l282 2013h115l-283 -2013h-114z" />
<glyph unicode="}" horiz-adv-x="534" d="M8 -164l17 113h14q82 0 124 35.5t54 119.5l59 422q16 113 78 183l123 133l-86 133q-33 51 -33 110q0 29 7 70l59 424q2 14 2 41q0 59 -32 87t-103 28h-15l15 114h16q233 0 234 -204q0 -18 -4 -64l-62 -444q-4 -29 -4 -37q0 -31 21 -62l122 -196l-178 -195 q-39 -41 -45 -98l-63 -449q-37 -264 -303 -264h-17z" />
<glyph unicode="~" horiz-adv-x="948" d="M180 748l19 141q90 82 213 82q82 0 196.5 -51.5t169.5 -51.5q125 0 232 105l-19 -139q-100 -82 -233 -82q-70 0 -183.5 51t-173.5 51q-121 0 -221 -106z" />
<glyph unicode="&#xa1;" horiz-adv-x="327" d="M82 0l92 657l131 703h101l-68 -701l-92 -659h-164zM289 1462l30 224h160l-30 -224h-160z" />
<glyph unicode="&#xa2;" horiz-adv-x="575" d="M121 379q0 39 4 59l108 781q16 113 77 181t161 77l29 209h63l-28 -209q156 -16 155 -193q0 -18 -4 -63l-39 -277h-112l38 279q2 14 2 37q0 37 -15 53t-48 20l-141 -1007q76 10 92 110l39 275h116l-38 -277q-35 -233 -228 -252l-24 -182h-64l25 180q-168 13 -168 199z M248 410q0 -78 65 -84l142 1007q-82 -14 -97 -110l-108 -785q-2 -10 -2 -28z" />
<glyph unicode="&#xa3;" horiz-adv-x="585" d="M37 -18l20 141q53 63 115 72q29 119 66 372l55 387h-113l17 119h112l43 305q45 326 293 326q61 0 98 -14l-18 -144q-37 14 -68 15q-70 0 -113.5 -47.5t-56.5 -133.5l-43 -307h213l-16 -119h-213l-55 -387q-35 -244 -82 -397q2 0 54 -26.5t87 -26.5q78 0 127 67h8 l-18 -137q-55 -63 -150 -63q-49 0 -116.5 39.5t-100.5 39.5q-68 0 -137 -81h-8z" />
<glyph unicode="&#xa4;" horiz-adv-x="987" d="M90 422l156 133q-55 76 -56 188q0 166 123 301l-114 130l96 86l111 -136q111 86 256 86q135 0 235 -88l143 138l74 -86l-151 -130q53 -82 53 -184q0 -168 -121 -305l115 -133l-97 -84l-110 137q-125 -84 -258 -84q-135 0 -230 84l-151 -137zM322 762q0 -104 67.5 -173 t173.5 -69q125 0 224.5 94.5t99.5 225.5q0 102 -69.5 170.5t-174.5 68.5q-127 0 -224 -95t-97 -222z" />
<glyph unicode="&#xa5;" horiz-adv-x="696" d="M59 188l19 125h233l27 197h-234l19 125h233l17 117l-113 934h168l61 -693l259 693h155l-383 -936l-16 -115h233l-18 -125h-234l-26 -197h233l-18 -125h-234l-24 -188h-148l25 188h-234z" />
<glyph unicode="&#xa6;" horiz-adv-x="395" d="M115 -164l118 846h115l-119 -846h-114zM279 1004l118 845h115l-119 -845h-114z" />
<glyph unicode="&#xa7;" horiz-adv-x="587" d="M47 -113q0 27 35 285h127q-31 -219 -31 -242q0 -82 78 -82q96 0 111 99q29 213 28 229q0 37 -20 66q-35 47 -105.5 117.5t-100.5 121.5t-30 123q0 12 33 246q23 164 150 213q-82 88 -82 178q0 18 30 232q33 231 262 231q104 0 149.5 -42t45.5 -130q0 -27 -35 -285h-127 q31 217 31 242q0 82 -78 82q-51 0 -75.5 -23.5t-32.5 -74.5q-31 -213 -31 -232q0 -43 20 -65q29 -35 82.5 -90.5t80 -86t50 -76.5t23.5 -89q0 -39 -31 -265q-20 -145 -147 -202q78 -96 78 -181q0 -39 -29 -239q-33 -231 -264 -232q-106 0 -150.5 42t-44.5 130zM279 625 q0 -49 19 -79t77 -79q82 8 94 102q27 190 27 228q0 49 -19.5 77.5t-77.5 75.5q-80 -8 -92 -100q-28 -188 -28 -225z" />
<glyph unicode="&#xa8;" horiz-adv-x="600" d="M266 1368l37 256h141l-36 -256h-142zM573 1368l37 256h142l-37 -256h-142z" />
<glyph unicode="&#xa9;" horiz-adv-x="1056" d="M117 322q0 53 10 131l109 780q35 252 160.5 361.5t369.5 109.5q211 0 310.5 -81t99.5 -263q0 -51 -11 -127l-108 -780q-37 -252 -163 -361.5t-370 -109.5q-211 0 -309 80t-98 260zM223 334q0 -133 75 -191.5t241 -58.5q195 0 288 81t121 273l113 805q8 51 8 107 q0 137 -73.5 194.5t-243.5 57.5q-199 0 -290 -79t-118 -280l-113 -805q-8 -51 -8 -104zM426 449q0 12 4 40l102 721q25 184 193 185q133 0 133 -135q0 -14 -4 -48l-27 -188h-90l27 188q0 4 1 10.5t1 10.5q0 59 -55 59q-63 0 -76 -82l-103 -721q-2 -8 -2 -22q0 -57 58 -57 q61 0 74 79l30 222h90l-30 -219q-25 -180 -179 -181q-147 1 -147 138z" />
<glyph unicode="&#xaa;" horiz-adv-x="444" d="M184 684q0 18 2 31l15 102q12 90 58 132t138 77l23 158q0 45 -33 45q-37 0 -43 -45l-20 -146h-84l20 148q18 137 141 137q109 0 109 -104q0 -20 -2 -33l-72 -512q-4 -33 -4 -41q0 -14 2 -19h-86q-2 4 -2 19q0 12 2 20q-33 -49 -84 -49q-80 0 -80 80zM279 727 q0 -31 32 -31q29 0 43 29l33 225q-55 -18 -71.5 -47t-24.5 -92l-10 -72q0 -2 -1 -6t-1 -6z" />
<glyph unicode="&#xab;" horiz-adv-x="798" d="M123 606l22 154l353 229l-19 -133l-270 -172l221 -180l-18 -139zM522 606l23 154l352 229l-18 -133l-271 -172l221 -180l-18 -139z" />
<glyph unicode="&#xac;" horiz-adv-x="858" d="M152 797l20 149h739l-131 -946h-145l110 797h-593z" />
<glyph unicode="&#xad;" horiz-adv-x="372" d="M137 788l17 121h323l-16 -121h-324z" />
<glyph unicode="&#xae;" horiz-adv-x="1056" d="M117 322q0 53 10 131l109 780q35 252 160.5 361.5t369.5 109.5q211 0 310.5 -81t99.5 -263q0 -51 -11 -127l-108 -780q-37 -252 -163 -361.5t-370 -109.5q-211 0 -309 80t-98 260zM223 334q0 -133 75 -191.5t241 -58.5q195 0 288 81t121 273l113 805q8 51 8 107 q0 137 -73.5 194.5t-243.5 57.5q-199 0 -290 -79t-118 -280l-113 -805q-8 -51 -8 -104zM410 322l147 1060h162q82 0 122 -32.5t40 -108.5q0 -16 -4 -53l-29 -211q-18 -123 -98 -158q14 -248 18 -497h-111q0 264 -8 475h-74l-65 -475h-100zM590 891h61q82 0 97 88l26 197 q2 12 2 36q0 68 -71 68h-62z" />
<glyph unicode="&#xaf;" horiz-adv-x="622" d="M276 1434l17 120h471l-16 -120h-472z" />
<glyph unicode="&#xb0;" horiz-adv-x="624" d="M258 1358q0 141 78 236.5t211 95.5q104 0 159.5 -61.5t55.5 -162.5q0 -141 -80 -230t-211 -89q-104 0 -158.5 56.5t-54.5 154.5zM346 1366q0 -131 135 -131q90 0 138.5 59.5t48.5 167.5q0 135 -136 135q-86 0 -136 -60t-50 -171z" />
<glyph unicode="&#xb1;" horiz-adv-x="946" d="M113 268l16 117h797l-17 -117h-796zM186 801l17 117h340l49 337h117l-50 -337h340l-16 -117h-340l-47 -342h-117l47 342h-340z" />
<glyph unicode="&#xb2;" horiz-adv-x="378" d="M174 864l23 154q10 78 31.5 124t80.5 115q72 84 93.5 124t31.5 100l15 90q0 49 -35 49q-39 0 -45 -49l-23 -148h-94l20 146q20 147 156 147q115 0 115 -108q0 -25 -2 -39l-13 -99q-12 -109 -120 -235q-66 -78 -86.5 -118t-28.5 -99l-8 -60h172l-15 -94h-268z" />
<glyph unicode="&#xb3;" horiz-adv-x="380" d="M190 967q0 20 3 30l24 166h96l-26 -178q0 -37 35 -37q41 0 47 49l28 203q0 18 -1 26.5t-8 15.5t-23 7h-43l12 88h47q35 0 41 50l27 184q0 29 -5.5 39t-27.5 10q-25 0 -33 -11.5t-12 -37.5l-23 -150h-94l22 150q10 78 47 111.5t107 33.5q113 0 113 -102q0 -12 -4 -45 l-25 -187q-8 -63 -70 -90q47 -12 48 -65q0 -16 -3 -25l-28 -205q-20 -143 -154 -143q-117 0 -117 113z" />
<glyph unicode="&#xb4;" horiz-adv-x="563" d="M264 1343l275 330h182l-322 -330h-135z" />
<glyph unicode="&#xb5;" horiz-adv-x="620" d="M35 -285l217 1553h141l-145 -1041q-4 -29 -4 -37q0 -66 67 -65q78 0 119 76l150 1067h141l-176 -1268h-121q0 23 8 92q-53 -88 -166 -88q-25 0 -49 10l-41 -299h-141z" />
<glyph unicode="&#xb6;" horiz-adv-x="866" d="M72 -285l14 109q31 -8 49 -8q55 0 84 28.5t37 96.5l182 1292h-32q-172 0 -173 168q0 121 61.5 203t182.5 82h586l-21 -150h-120l-254 -1810h-129l254 1810h-179l-225 -1595q-16 -109 -75.5 -174.5t-155.5 -65.5q-45 0 -86 14zM338 1386q0 -82 70 -81h41l32 231h-37 q-51 0 -78.5 -42t-27.5 -108z" />
<glyph unicode="&#xb7;" horiz-adv-x="272" d="M160 696l35 256h145l-35 -256h-145z" />
<glyph unicode="&#xb8;" horiz-adv-x="272" d="M49 -188l21 147h118l-26 -184q-10 -80 -90 -80h-23l6 51h17q23 0 26 25l6 41h-55z" />
<glyph unicode="&#xb9;" horiz-adv-x="256" d="M211 864l96 688h-45l14 93h21q33 0 39 38l4 23h84l-119 -842h-94z" />
<glyph unicode="&#xba;" horiz-adv-x="450" d="M195 709q0 10 4 34l61 441q18 139 150 139q115 0 114 -109q0 -20 -2 -30l-61 -441q-18 -139 -152 -139q-114 1 -114 105zM289 733q0 -33 35 -33q39 0 45 45l59 435q0 4 1 8t1 8q0 31 -33 31q-41 0 -47 -47l-59 -435q0 -2 -1 -6t-1 -6z" />
<glyph unicode="&#xbb;" horiz-adv-x="798" d="M90 365l19 139l270 180l-221 172l18 133l291 -229l-23 -154zM489 365l19 139l270 180l-221 172l18 133l291 -229l-22 -154z" />
<glyph unicode="&#xbc;" horiz-adv-x="983" d="M63 0l977 1686h105l-975 -1686h-107zM317 864l97 688h-45l14 93h20q33 0 39 38l4 23h84l-118 -842h-95zM596 147l10 82l264 592h88l-81 -585h41l-13 -89h-41l-24 -167h-88l24 167h-180zM692 236h96q12 96 32 210.5t22 133.5z" />
<glyph unicode="&#xbd;" horiz-adv-x="983" d="M63 0l977 1686h105l-975 -1686h-107zM317 864l97 688h-45l14 93h20q33 0 39 38l4 23h84l-118 -842h-95zM629 -20l22 153q10 78 32 124t81 116q72 84 93.5 124t31.5 99l14 90q0 49 -35 49q-39 0 -45 -49l-22 -147h-94l20 145q20 147 156 147q115 0 114 -108q0 -25 -2 -39 l-12 -98q-12 -109 -121 -236q-66 -78 -86 -117.5t-28 -99.5l-9 -59h172l-14 -94h-268z" />
<glyph unicode="&#xbe;" horiz-adv-x="983" d="M63 0l977 1686h105l-975 -1686h-107zM233 967q0 20 3 30l24 166h96l-26 -178q0 -37 35 -37q41 0 47 49l28 203q0 18 -1 26.5t-8 15.5t-23 7h-43l12 88h47q35 0 41 50l27 184q0 29 -5.5 39t-27.5 10q-25 0 -33 -11.5t-12 -37.5l-23 -150h-94l22 150q10 78 47 111.5 t107 33.5q113 0 113 -102q0 -12 -4 -45l-25 -187q-8 -63 -70 -90q47 -12 48 -65q0 -16 -3 -25l-28 -205q-20 -143 -154 -143q-117 0 -117 113zM575 147l11 82l264 592h88l-82 -585h41l-12 -89h-41l-25 -167h-88l25 167h-181zM672 236h96q12 96 31.5 210.5t21.5 133.5z" />
<glyph unicode="&#xbf;" horiz-adv-x="612" d="M82 195q0 37 6 79l25 177q18 125 51 201.5t96 138.5q84 82 105.5 127t37.5 153l33 232h146l-31 -228q-14 -117 -48 -188.5t-106 -143.5q-70 -70 -91 -117.5t-40 -174.5l-24 -179q-4 -33 -4 -43q0 -90 88 -90q109 0 127 131l43 297h149l-41 -295q-20 -150 -93 -220 t-206 -70q-223 0 -223 213zM455 1430l34 256h146l-35 -256h-145z" />
<glyph unicode="&#xc0;" horiz-adv-x="686" d="M25 0l467 1686h182l-17 -1686h-155l2 283h-252l-76 -283h-151zM291 426h215q8 573 16 864zM326 2091h180l186 -330h-137z" />
<glyph unicode="&#xc1;" horiz-adv-x="686" d="M25 0l467 1686h182l-17 -1686h-155l2 283h-252l-76 -283h-151zM291 426h215q8 573 16 864zM485 1761l275 330h182l-321 -330h-136z" />
<glyph unicode="&#xc2;" horiz-adv-x="686" d="M25 0l467 1686h182l-17 -1686h-155l2 283h-252l-76 -283h-151zM291 1761l266 330h164l168 -330h-133l-127 252l-203 -252h-135zM291 426h215q8 573 16 864z" />
<glyph unicode="&#xc3;" horiz-adv-x="686" d="M25 0l467 1686h182l-17 -1686h-155l2 283h-252l-76 -283h-151zM291 426h215q8 573 16 864zM352 1829l19 125q55 55 131 55q51 0 122.5 -33.5t116.5 -33.5q70 0 125 61l-16 -125q-49 -53 -133 -53q-47 0 -120 33.5t-118 33.5q-74 0 -127 -63z" />
<glyph unicode="&#xc4;" horiz-adv-x="686" d="M25 0l467 1686h182l-17 -1686h-155l2 283h-252l-76 -283h-151zM291 426h215q8 573 16 864zM367 1786l36 256h142l-37 -256h-141zM674 1786l37 256h141l-37 -256h-141z" />
<glyph unicode="&#xc5;" horiz-adv-x="686" d="M25 0l467 1686h182l-17 -1686h-155l2 283h-252l-76 -283h-151zM291 426h215q8 573 16 864zM412 1903q0 82 59 135t162 53q86 0 132 -38t46 -99q0 -84 -65.5 -135.5t-157.5 -51.5q-86 0 -131 37.5t-45 98.5zM489 1911q0 -76 109 -76q55 0 93 27.5t38 83.5q0 76 -104 75 q-63 0 -99.5 -28.5t-36.5 -81.5z" />
<glyph unicode="&#xc6;" horiz-adv-x="946" d="M25 0l467 1686h638l-22 -158h-291l-82 -592h207l-22 -156h-207l-88 -626h299l-21 -154h-457l39 283h-231l-78 -283h-151zM293 426h213l153 1102h-67z" />
<glyph unicode="&#xc7;" horiz-adv-x="632" d="M94 197q0 33 6 69l160 1147q39 291 309 291q213 0 213 -211q0 -4 -2 -31.5t-4 -44.5l-43 -299h-141l43 297q2 16 2 43q0 88 -88 88q-111 0 -129 -131l-162 -1147q-2 -12 -2 -37q0 -96 94 -96q55 0 84 32t39 101l49 350h142l-50 -348q-23 -147 -91 -217.5t-195 -70.5 q-234 0 -234 215zM250 -188l20 147h119l-27 -184q-10 -80 -90 -80h-22l6 51h16q23 0 27 25l6 41h-55z" />
<glyph unicode="&#xc8;" d="M76 0l235 1686h447l-23 -158h-291l-82 -592h205l-22 -156h-205l-88 -626h301l-21 -154h-456zM272 2091h181l186 -330h-137z" />
<glyph unicode="&#xc9;" d="M76 0l235 1686h447l-23 -158h-291l-82 -592h205l-22 -156h-205l-88 -626h301l-21 -154h-456zM428 1761l274 330h183l-322 -330h-135z" />
<glyph unicode="&#xca;" d="M76 0l235 1686h447l-23 -158h-291l-82 -592h205l-22 -156h-205l-88 -626h301l-21 -154h-456zM246 1761l266 330h164l168 -330h-133l-127 252l-203 -252h-135z" />
<glyph unicode="&#xcb;" d="M76 0l235 1686h447l-23 -158h-291l-82 -592h205l-22 -156h-205l-88 -626h301l-21 -154h-456zM322 1786l36 256h142l-37 -256h-141zM629 1786l37 256h141l-37 -256h-141z" />
<glyph unicode="&#xcc;" horiz-adv-x="315" d="M80 0l235 1686h156l-235 -1686h-156zM143 2091h181l186 -330h-137z" />
<glyph unicode="&#xcd;" horiz-adv-x="315" d="M80 0l235 1686h156l-235 -1686h-156zM301 1761l274 330h183l-322 -330h-135z" />
<glyph unicode="&#xce;" horiz-adv-x="315" d="M80 0l235 1686h156l-235 -1686h-156zM106 1761l267 330h164l168 -330h-134l-127 252l-202 -252h-136z" />
<glyph unicode="&#xcf;" horiz-adv-x="315" d="M80 0l235 1686h156l-235 -1686h-156zM184 1786l37 256h141l-36 -256h-142zM492 1786l36 256h142l-37 -256h-141z" />
<glyph unicode="&#xd0;" horiz-adv-x="663" d="M72 0l108 780h-51l23 156h51l104 750h264q113 0 170.5 -58.5t57.5 -165.5q0 -43 -4 -65l-156 -1110q-39 -287 -303 -287h-264zM248 154h108q111 0 129 133l156 1110q2 10 2 30q0 100 -94 101h-109l-82 -592h123l-22 -156h-123z" />
<glyph unicode="&#xd1;" horiz-adv-x="722" d="M72 0l235 1686h187l84 -1235l172 1235h137l-236 -1686h-155l-119 1231l-170 -1231h-135zM371 1829l18 125q55 55 131 55q51 0 123 -33.5t117 -33.5q70 0 125 61l-17 -125q-49 -53 -133 -53q-47 0 -119.5 33.5t-117.5 33.5q-74 0 -127 -63z" />
<glyph unicode="&#xd2;" horiz-adv-x="657" d="M94 199q0 33 6 69l162 1149q41 287 303 287q231 0 232 -217q0 -45 -4 -70l-162 -1149q-41 -287 -307 -286q-230 0 -230 217zM254 233q0 -98 92 -98q111 0 129 133l162 1149q2 12 2 35q0 94 -94 94q-109 0 -127 -129l-162 -1149q-2 -12 -2 -35zM311 2091h181l186 -330 h-137z" />
<glyph unicode="&#xd3;" horiz-adv-x="657" d="M94 199q0 33 6 69l162 1149q41 287 303 287q231 0 232 -217q0 -45 -4 -70l-162 -1149q-41 -287 -307 -286q-230 0 -230 217zM254 233q0 -98 92 -98q111 0 129 133l162 1149q2 12 2 35q0 94 -94 94q-109 0 -127 -129l-162 -1149q-2 -12 -2 -35zM471 1761l274 330h183 l-322 -330h-135z" />
<glyph unicode="&#xd4;" horiz-adv-x="657" d="M94 199q0 33 6 69l162 1149q41 287 303 287q231 0 232 -217q0 -45 -4 -70l-162 -1149q-41 -287 -307 -286q-230 0 -230 217zM254 233q0 -98 92 -98q111 0 129 133l162 1149q2 12 2 35q0 94 -94 94q-109 0 -127 -129l-162 -1149q-2 -12 -2 -35zM279 1761l266 330h164 l168 -330h-134l-127 252l-202 -252h-135z" />
<glyph unicode="&#xd5;" horiz-adv-x="657" d="M94 199q0 33 6 69l162 1149q41 287 303 287q231 0 232 -217q0 -45 -4 -70l-162 -1149q-41 -287 -307 -286q-230 0 -230 217zM254 233q0 -98 92 -98q111 0 129 133l162 1149q2 12 2 35q0 94 -94 94q-109 0 -127 -129l-162 -1149q-2 -12 -2 -35zM338 1829l18 125 q55 55 131 55q51 0 123 -33.5t117 -33.5q70 0 125 61l-16 -125q-49 -53 -134 -53q-47 0 -119.5 33.5t-117.5 33.5q-74 0 -127 -63z" />
<glyph unicode="&#xd6;" horiz-adv-x="657" d="M94 199q0 33 6 69l162 1149q41 287 303 287q231 0 232 -217q0 -45 -4 -70l-162 -1149q-41 -287 -307 -286q-230 0 -230 217zM254 233q0 -98 92 -98q111 0 129 133l162 1149q2 12 2 35q0 94 -94 94q-109 0 -127 -129l-162 -1149q-2 -12 -2 -35zM352 1786l37 256h141 l-36 -256h-142zM659 1786l37 256h142l-37 -256h-142z" />
<glyph unicode="&#xd7;" horiz-adv-x="946" d="M236 618l272 240l-205 240l94 82l205 -238l277 240l69 -82l-274 -242l209 -242l-97 -81l-206 241l-275 -239z" />
<glyph unicode="&#xd8;" horiz-adv-x="657" d="M35 -193l92 259q-33 51 -33 131q0 33 6 71l162 1149q41 287 303 287q86 0 137 -29l74 203h80l-92 -260q33 -51 33 -133q0 -45 -4 -68l-162 -1149q-41 -287 -307 -286q-84 0 -138 28l-73 -203h-78zM254 203q16 -68 92 -68q111 0 129 133l125 895zM291 522l344 961 q-16 63 -90 63q-109 0 -127 -129z" />
<glyph unicode="&#xd9;" horiz-adv-x="667" d="M100 197q0 33 6 71l199 1418h156l-199 -1418q-2 -12 -2 -35q0 -98 92 -98q109 0 127 133l199 1418h156l-199 -1418q-39 -287 -305 -286q-230 0 -230 215zM317 2091h181l186 -330h-137z" />
<glyph unicode="&#xda;" horiz-adv-x="667" d="M100 197q0 33 6 71l199 1418h156l-199 -1418q-2 -12 -2 -35q0 -98 92 -98q109 0 127 133l199 1418h156l-199 -1418q-39 -287 -305 -286q-230 0 -230 215zM475 1761l275 330h182l-322 -330h-135z" />
<glyph unicode="&#xdb;" horiz-adv-x="667" d="M100 197q0 33 6 71l199 1418h156l-199 -1418q-2 -12 -2 -35q0 -98 92 -98q109 0 127 133l199 1418h156l-199 -1418q-39 -287 -305 -286q-230 0 -230 215zM283 1761l266 330h164l168 -330h-133l-127 252l-203 -252h-135z" />
<glyph unicode="&#xdc;" horiz-adv-x="667" d="M100 197q0 33 6 71l199 1418h156l-199 -1418q-2 -12 -2 -35q0 -98 92 -98q109 0 127 133l199 1418h156l-199 -1418q-39 -287 -305 -286q-230 0 -230 215zM356 1786l37 256h142l-37 -256h-142zM664 1786l36 256h142l-37 -256h-141z" />
<glyph unicode="&#xdd;" horiz-adv-x="679" d="M254 1686h164q49 -406 63 -695q92 287 262 695h152l-377 -930l-104 -756h-158l104 756zM485 1761l275 330h182l-321 -330h-136z" />
<glyph unicode="&#xde;" horiz-adv-x="669" d="M76 0l235 1686h156l-41 -300h113q254 0 254 -229q0 -35 -7 -74l-73 -518q-45 -303 -332 -303h-115l-35 -262h-155zM289 416h114q131 0 154 149l74 518q2 12 2 35q0 111 -117 111h-113z" />
<glyph unicode="&#xdf;" horiz-adv-x="671" d="M76 0l203 1452q35 252 268 252q201 0 201 -195q0 -16 -5 -57l-57 -410q-16 -109 -84 -137q113 -29 113 -166q0 -14 -4 -47l-64 -450q-18 -135 -80.5 -197.5t-187.5 -62.5q-55 0 -70 6l21 141q23 -6 59 -6q55 0 83 26.5t36 92.5l63 456q2 10 2 31q0 82 -90 82h-84l19 135 h43q76 0 88 96l57 406q0 6 1 14t1 15q0 84 -80 84q-98 0 -112 -113l-203 -1448h-137z" />
<glyph unicode="&#xe0;" horiz-adv-x="581" d="M68 131q0 14 4 51l26 187q12 90 44 153.5t89.5 108.5t107.5 69.5t140 59.5l39 276q2 12 2 33q0 78 -80 78q-53 0 -75.5 -26.5t-30.5 -84.5l-39 -266h-125l39 268q37 250 256 250q193 0 192 -188q0 -20 -4 -62l-127 -893q-10 -72 -10 -116q0 -20 2 -29h-129q-2 8 -2 27 q0 12 4 49q-66 -94 -166 -94q-157 -1 -157 149zM213 197q0 -78 84 -78q72 0 102 80l64 448q-123 -41 -168 -102.5t-62 -186.5l-18 -135q-2 -10 -2 -26zM217 1673h180l187 -330h-138z" />
<glyph unicode="&#xe1;" horiz-adv-x="581" d="M68 131q0 14 4 51l26 187q12 90 44 153.5t89.5 108.5t107.5 69.5t140 59.5l39 276q2 12 2 33q0 78 -80 78q-53 0 -75.5 -26.5t-30.5 -84.5l-39 -266h-125l39 268q37 250 256 250q193 0 192 -188q0 -20 -4 -62l-127 -893q-10 -72 -10 -116q0 -20 2 -29h-129q-2 8 -2 27 q0 12 4 49q-66 -94 -166 -94q-157 -1 -157 149zM213 197q0 -78 84 -78q72 0 102 80l64 448q-123 -41 -168 -102.5t-62 -186.5l-18 -135q-2 -10 -2 -26zM375 1343l274 330h182l-321 -330h-135z" />
<glyph unicode="&#xe2;" horiz-adv-x="581" d="M68 131q0 14 4 51l26 187q12 90 44 153.5t89.5 108.5t107.5 69.5t140 59.5l39 276q2 12 2 33q0 78 -80 78q-53 0 -75.5 -26.5t-30.5 -84.5l-39 -266h-125l39 268q37 250 256 250q193 0 192 -188q0 -20 -4 -62l-127 -893q-10 -72 -10 -116q0 -20 2 -29h-129q-2 8 -2 27 q0 12 4 49q-66 -94 -166 -94q-157 -1 -157 149zM180 1343l266 330h164l168 -330h-133l-127 252l-203 -252h-135zM213 197q0 -78 84 -78q72 0 102 80l64 448q-123 -41 -168 -102.5t-62 -186.5l-18 -135q-2 -10 -2 -26z" />
<glyph unicode="&#xe3;" horiz-adv-x="581" d="M68 131q0 14 4 51l26 187q12 90 44 153.5t89.5 108.5t107.5 69.5t140 59.5l39 276q2 12 2 33q0 78 -80 78q-53 0 -75.5 -26.5t-30.5 -84.5l-39 -266h-125l39 268q37 250 256 250q193 0 192 -188q0 -20 -4 -62l-127 -893q-10 -72 -10 -116q0 -20 2 -29h-129q-2 8 -2 27 q0 12 4 49q-66 -94 -166 -94q-157 -1 -157 149zM213 197q0 -78 84 -78q72 0 102 80l64 448q-123 -41 -168 -102.5t-62 -186.5l-18 -135q-2 -10 -2 -26zM244 1411l18 125q55 55 131 55q51 0 123 -33.5t117 -33.5q70 0 125 61l-17 -125q-49 -53 -133 -53q-47 0 -119.5 34 t-117.5 34q-74 -1 -127 -64z" />
<glyph unicode="&#xe4;" horiz-adv-x="581" d="M68 131q0 14 4 51l26 187q12 90 44 153.5t89.5 108.5t107.5 69.5t140 59.5l39 276q2 12 2 33q0 78 -80 78q-53 0 -75.5 -26.5t-30.5 -84.5l-39 -266h-125l39 268q37 250 256 250q193 0 192 -188q0 -20 -4 -62l-127 -893q-10 -72 -10 -116q0 -20 2 -29h-129q-2 8 -2 27 q0 12 4 49q-66 -94 -166 -94q-157 -1 -157 149zM213 197q0 -78 84 -78q72 0 102 80l64 448q-123 -41 -168 -102.5t-62 -186.5l-18 -135q-2 -10 -2 -26zM258 1368l37 256h141l-37 -256h-141zM565 1368l37 256h141l-36 -256h-142z" />
<glyph unicode="&#xe5;" horiz-adv-x="581" d="M68 131q0 14 4 51l26 187q12 90 44 153.5t89.5 108.5t107.5 69.5t140 59.5l39 276q2 12 2 33q0 78 -80 78q-53 0 -75.5 -26.5t-30.5 -84.5l-39 -266h-125l39 268q37 250 256 250q193 0 192 -188q0 -20 -4 -62l-127 -893q-10 -72 -10 -116q0 -20 2 -29h-129q-2 8 -2 27 q0 12 4 49q-66 -94 -166 -94q-157 -1 -157 149zM213 197q0 -78 84 -78q72 0 102 80l64 448q-123 -41 -168 -102.5t-62 -186.5l-18 -135q-2 -10 -2 -26zM301 1485q0 82 59.5 135t161.5 53q86 0 132 -38t46 -99q0 -84 -65.5 -135t-157.5 -51q-86 0 -131 37t-45 98zM379 1493 q0 -76 108 -76q55 0 93 28t38 83q0 76 -104 76q-63 0 -99 -29t-36 -82z" />
<glyph unicode="&#xe6;" horiz-adv-x="886" d="M68 133q0 12 4 49l26 187q12 90 44 153.5t89.5 108.5t107.5 69.5t140 59.5l39 278q2 12 2 33q0 76 -80 76q-49 0 -73.5 -26.5t-32.5 -82.5l-39 -268h-125l39 268q37 250 256 250q102 0 151 -59q59 59 160 59q195 0 195 -192q0 -43 -4 -68l-58 -407h-315l-55 -394 q-2 -10 -2 -24q0 -78 75 -78q96 0 111 113l39 278h133l-39 -278q-37 -256 -264 -256q-131 0 -168 98q-72 -98 -193 -98q-163 -1 -163 151zM213 199q0 -80 84 -80q72 0 102 80l64 448q-123 -41 -168 -103.5t-62 -185.5l-16 -122q-4 -29 -4 -37zM608 723h183l43 305q2 10 2 29 q0 84 -80 84q-88 0 -105 -113z" />
<glyph unicode="&#xe7;" horiz-adv-x="579" d="M92 180q0 39 4 60l111 786q18 121 86.5 191.5t181.5 70.5q188 0 189 -194q0 -43 -5 -66l-38 -274h-127l38 276q2 10 3 29q0 84 -80 84q-94 0 -111 -115l-111 -788q-2 -10 -2 -29q0 -86 80 -86q94 0 111 113l39 280h131l-39 -282q-16 -117 -83 -185.5t-179 -68.5 q-98 0 -148.5 52t-50.5 146zM213 -188l20 147h119l-26 -184q-10 -80 -90 -80h-23l6 51h17q23 0 26 25l6 41h-55z" />
<glyph unicode="&#xe8;" d="M90 170q0 31 6 68l111 790q37 260 256 260q195 0 194 -194q0 -43 -4 -66l-57 -407h-315l-54 -383q-4 -25 -4 -35q0 -78 76 -78q96 0 111 113l39 278h133l-39 -278q-37 -256 -264 -256q-189 0 -189 188zM213 1673h180l187 -330h-138zM295 723h182l43 305q2 10 2 29 q0 84 -80 84q-88 0 -104 -113z" />
<glyph unicode="&#xe9;" d="M90 170q0 31 6 68l111 790q37 260 256 260q195 0 194 -194q0 -43 -4 -66l-57 -407h-315l-54 -383q-4 -25 -4 -35q0 -78 76 -78q96 0 111 113l39 278h133l-39 -278q-37 -256 -264 -256q-189 0 -189 188zM295 723h182l43 305q2 10 2 29q0 84 -80 84q-88 0 -104 -113z M371 1343l274 330h182l-321 -330h-135z" />
<glyph unicode="&#xea;" d="M90 170q0 31 6 68l111 790q37 260 256 260q195 0 194 -194q0 -43 -4 -66l-57 -407h-315l-54 -383q-4 -25 -4 -35q0 -78 76 -78q96 0 111 113l39 278h133l-39 -278q-37 -256 -264 -256q-189 0 -189 188zM176 1343l266 330h164l168 -330h-133l-127 252l-203 -252h-135z M295 723h182l43 305q2 10 2 29q0 84 -80 84q-88 0 -104 -113z" />
<glyph unicode="&#xeb;" d="M90 170q0 31 6 68l111 790q37 260 256 260q195 0 194 -194q0 -43 -4 -66l-57 -407h-315l-54 -383q-4 -25 -4 -35q0 -78 76 -78q96 0 111 113l39 278h133l-39 -278q-37 -256 -264 -256q-189 0 -189 188zM254 1368l37 256h141l-37 -256h-141zM295 723h182l43 305q2 10 2 29 q0 84 -80 84q-88 0 -104 -113zM561 1368l37 256h141l-37 -256h-141z" />
<glyph unicode="&#xec;" horiz-adv-x="323" d="M98 1673h181l186 -330h-137zM102 0l177 1268h141l-176 -1268h-142z" />
<glyph unicode="&#xed;" horiz-adv-x="323" d="M80 0l176 1268h141l-176 -1268h-141zM236 1343l274 330h182l-321 -330h-135z" />
<glyph unicode="&#xee;" horiz-adv-x="464" d="M123 1343l266 330h164l168 -330h-133l-127 252l-203 -252h-135zM162 0l176 1268h141l-176 -1268h-141z" />
<glyph unicode="&#xef;" horiz-adv-x="364" d="M111 0l176 1268h141l-176 -1268h-141zM147 1368l37 256h142l-37 -256h-142zM455 1368l37 256h141l-37 -256h-141z" />
<glyph unicode="&#xf0;" horiz-adv-x="657" d="M96 209q0 43 4 65l76 541q37 250 268 250q111 0 142 -90l35 235q8 55 8 108.5t-11 100.5l-247 -262l-49 47l264 281q-47 57 -162 61l20 158q178 0 258 -98l105 110l49 -47l-117 -123q33 -80 33 -200q0 -63 -14 -175l-127 -897q-41 -293 -307 -292q-228 0 -228 227z M256 242q0 -106 90 -107q109 0 127 133l72 508q0 35 -1 50.5t-8.5 40t-27 34.5t-49.5 10q-111 0 -129 -123l-70 -495q-4 -37 -4 -51z" />
<glyph unicode="&#xf1;" horiz-adv-x="618" d="M76 0l176 1268h119q0 -43 -6 -97q76 117 198 117q139 0 139 -160q0 -35 -6 -73l-147 -1055h-141l145 1047q2 12 2 34q0 68 -70 68q-78 0 -118 -78l-150 -1071h-141zM262 1411l19 125q55 55 131 55q51 0 122.5 -33.5t116.5 -33.5q70 0 125 61l-16 -125q-49 -53 -133 -53 q-47 0 -120 34t-118 34q-74 -1 -127 -64z" />
<glyph unicode="&#xf2;" horiz-adv-x="593" d="M90 170q0 31 6 63l111 801q39 254 270 254q201 0 201 -192q0 -16 -4 -62l-111 -801q-39 -252 -270 -251q-203 0 -203 188zM223 1673h180l187 -330h-137zM229 199q0 -74 84 -74q55 0 80 27.5t33 85.5l111 792q2 12 2 35q0 78 -82 78q-53 0 -79 -29t-34 -84l-111 -797 q-4 -24 -4 -34z" />
<glyph unicode="&#xf3;" horiz-adv-x="593" d="M90 170q0 31 6 63l111 801q39 254 270 254q201 0 201 -192q0 -16 -4 -62l-111 -801q-39 -252 -270 -251q-203 0 -203 188zM229 199q0 -74 84 -74q55 0 80 27.5t33 85.5l111 792q2 12 2 35q0 78 -82 78q-53 0 -79 -29t-34 -84l-111 -797q-4 -24 -4 -34zM381 1343l274 330 h183l-322 -330h-135z" />
<glyph unicode="&#xf4;" horiz-adv-x="593" d="M90 170q0 31 6 63l111 801q39 254 270 254q201 0 201 -192q0 -16 -4 -62l-111 -801q-39 -252 -270 -251q-203 0 -203 188zM186 1343l267 330h163l168 -330h-133l-127 252l-202 -252h-136zM229 199q0 -74 84 -74q55 0 80 27.5t33 85.5l111 792q2 12 2 35q0 78 -82 78 q-53 0 -79 -29t-34 -84l-111 -797q-4 -24 -4 -34z" />
<glyph unicode="&#xf5;" horiz-adv-x="593" d="M90 170q0 31 6 63l111 801q39 254 270 254q201 0 201 -192q0 -16 -4 -62l-111 -801q-39 -252 -270 -251q-203 0 -203 188zM229 199q0 -74 84 -74q55 0 80 27.5t33 85.5l111 792q2 12 2 35q0 78 -82 78q-53 0 -79 -29t-34 -84l-111 -797q-4 -24 -4 -34zM250 1411l18 125 q55 55 131 55q51 0 123 -33.5t117 -33.5q70 0 125 61l-16 -125q-49 -53 -134 -53q-47 0 -119.5 34t-117.5 34q-74 -1 -127 -64z" />
<glyph unicode="&#xf6;" horiz-adv-x="593" d="M90 170q0 31 6 63l111 801q39 254 270 254q201 0 201 -192q0 -16 -4 -62l-111 -801q-39 -252 -270 -251q-203 0 -203 188zM229 199q0 -74 84 -74q55 0 80 27.5t33 85.5l111 792q2 12 2 35q0 78 -82 78q-53 0 -79 -29t-34 -84l-111 -797q-4 -24 -4 -34zM264 1368l37 256 h141l-36 -256h-142zM571 1368l37 256h142l-37 -256h-142z" />
<glyph unicode="&#xf7;" horiz-adv-x="946" d="M186 801l17 117h796l-16 -117h-797zM455 401l34 256h146l-35 -256h-145zM547 1061l35 256h145l-35 -256h-145z" />
<glyph unicode="&#xf8;" horiz-adv-x="593" d="M35 -193l90 240q-35 47 -35 123q0 31 6 63l111 801q39 254 270 254q59 0 107 -20l73 192h78l-92 -241q35 -51 35 -127q0 -16 -4 -58l-111 -801q-39 -252 -270 -251q-63 0 -107 18l-73 -193h-78zM242 150q18 -25 71 -25q55 0 80 27.5t33 85.5l90 639zM254 391l272 723 q-18 29 -69 29q-53 0 -79 -29t-34 -84z" />
<glyph unicode="&#xf9;" horiz-adv-x="614" d="M94 141q0 41 4 64l148 1063h141l-145 -1041q-2 -14 -2 -34q0 -68 65 -68q80 0 119 76l149 1067h142l-176 -1268h-121q0 27 8 92q-78 -106 -195 -106q-137 -1 -137 155zM233 1673h181l186 -330h-137z" />
<glyph unicode="&#xfa;" horiz-adv-x="614" d="M94 141q0 41 4 64l148 1063h141l-145 -1041q-2 -14 -2 -34q0 -68 65 -68q80 0 119 76l149 1067h142l-176 -1268h-121q0 27 8 92q-78 -106 -195 -106q-137 -1 -137 155zM391 1343l275 330h182l-322 -330h-135z" />
<glyph unicode="&#xfb;" horiz-adv-x="614" d="M94 141q0 41 4 64l148 1063h141l-145 -1041q-2 -14 -2 -34q0 -68 65 -68q80 0 119 76l149 1067h142l-176 -1268h-121q0 27 8 92q-78 -106 -195 -106q-137 -1 -137 155zM197 1343l266 330h164l168 -330h-133l-127 252l-203 -252h-135z" />
<glyph unicode="&#xfc;" horiz-adv-x="614" d="M94 141q0 41 4 64l148 1063h141l-145 -1041q-2 -14 -2 -34q0 -68 65 -68q80 0 119 76l149 1067h142l-176 -1268h-121q0 27 8 92q-78 -106 -195 -106q-137 -1 -137 155zM272 1368l37 256h142l-37 -256h-142zM580 1368l36 256h142l-37 -256h-141z" />
<glyph unicode="&#xfd;" horiz-adv-x="567" d="M0 -285l18 142q27 -10 68 -10.5t67.5 39.5t57.5 141l-12 1241h147q0 -555 -22 -955q96 401 258 955h135l-373 -1284q-43 -147 -99.5 -213t-172.5 -66q-27 0 -72 10zM369 1343l274 330h182l-321 -330h-135z" />
<glyph unicode="&#xfe;" horiz-adv-x="620" d="M35 -285l276 1971h142l-68 -480q66 82 166 82q80 0 119 -38t39 -124q0 -33 -7 -71l-118 -842q-18 -125 -69.5 -178t-147.5 -53q-104 0 -142 77l-49 -344h-141zM246 209q8 -39 34.5 -60.5t61.5 -21.5q47 0 71.5 23.5t32.5 80.5l115 805q2 10 2 31q0 74 -78 74 q-82 0 -120 -82z" />
<glyph unicode="&#xff;" horiz-adv-x="567" d="M0 -285l18 142q27 -10 68 -10.5t67.5 39.5t57.5 141l-12 1241h147q0 -555 -22 -955q96 401 258 955h135l-373 -1284q-43 -147 -99.5 -213t-172.5 -66q-27 0 -72 10zM250 1368l37 256h141l-37 -256h-141zM557 1368l37 256h141l-37 -256h-141z" />
<glyph unicode="&#x152;" horiz-adv-x="894" d="M94 199q0 33 6 69l162 1149q41 287 303 287q68 0 111 -18h403l-22 -158h-291l-82 -592h205l-23 -156h-204l-89 -626h301l-20 -154h-414q-49 -18 -116 -18q-230 0 -230 217zM254 233q0 -98 92 -98q39 0 70 10l196 1391q-23 10 -67 10q-109 0 -127 -129l-162 -1149 q-2 -12 -2 -35z" />
<glyph unicode="&#x153;" horiz-adv-x="909" d="M90 170q0 31 6 63l111 801q35 254 270 254q106 0 158 -63q63 63 164 63q195 0 194 -192q0 -43 -4 -68l-57 -407h-316l-53 -383q-4 -25 -4 -35q0 -78 76 -78q96 0 110 113l39 278h134l-39 -278q-37 -256 -265 -256q-100 0 -149 57q-59 -57 -172 -57q-203 0 -203 188z M229 199q0 -74 84 -74q55 0 80 27.5t33 85.5l111 792q2 12 2 35q0 78 -82 78q-53 0 -79 -29t-34 -84l-111 -797q-4 -24 -4 -34zM631 723h182l43 305q2 10 2 29q0 84 -80 84q-88 0 -104 -113z" />
<glyph unicode="&#x178;" horiz-adv-x="679" d="M254 1686h164q49 -406 63 -695q92 287 262 695h152l-377 -930l-104 -756h-158l104 756zM362 1786l37 256h142l-37 -256h-142zM670 1786l37 256h141l-37 -256h-141z" />
<glyph unicode="&#x2c6;" horiz-adv-x="788" d="M283 1343l266 330h164l168 -330h-133l-127 252l-203 -252h-135z" />
<glyph unicode="&#x2dc;" horiz-adv-x="643" d="M272 1411l19 125q55 55 131 55q51 0 122.5 -33.5t117.5 -33.5q70 0 124 61l-16 -125q-49 -53 -133 -53q-47 0 -120 34t-118 34q-74 -1 -127 -64z" />
<glyph unicode="&#x2013;" horiz-adv-x="571" d="M137 788l17 121h518l-17 -121h-518z" />
<glyph unicode="&#x2014;" horiz-adv-x="897" d="M137 788l17 121h845l-16 -121h-846z" />
<glyph unicode="&#x2018;" horiz-adv-x="274" d="M248 1321l37 266q16 113 127 113h16l-8 -68h-14q-33 0 -39 -37l-9 -63h68l-31 -211h-147z" />
<glyph unicode="&#x2019;" horiz-adv-x="274" d="M266 1307l10 67h13q37 0 39 37l10 64h-68l29 211h147l-36 -265q-16 -115 -127 -114h-17z" />
<glyph unicode="&#x201a;" horiz-adv-x="282" d="M70 -123l10 68h12q33 0 39 37l10 63h-67l28 211h148l-37 -264q-16 -115 -127 -115h-16z" />
<glyph unicode="&#x201c;" horiz-adv-x="548" d="M248 1321l37 266q16 113 127 113h16l-8 -68h-14q-33 0 -39 -37l-9 -63h68l-31 -211h-147zM522 1321l37 266q16 113 127 113h16l-8 -68h-14q-33 0 -39 -37l-8 -63h67l-30 -211h-148z" />
<glyph unicode="&#x201d;" horiz-adv-x="548" d="M266 1307l10 67h13q37 0 39 37l10 64h-68l29 211h147l-36 -265q-16 -115 -127 -114h-17zM541 1307l10 67h12q37 0 39 37l10 64h-67l28 211h148l-37 -265q-16 -115 -127 -114h-16z" />
<glyph unicode="&#x201e;" horiz-adv-x="565" d="M70 -123l10 68h12q33 0 39 37l10 63h-67l28 211h148l-37 -264q-16 -115 -127 -115h-16zM352 -123l10 68h13q33 0 39 37l10 63h-68l29 211h147l-36 -264q-16 -115 -127 -115h-17z" />
<glyph unicode="&#x2022;" horiz-adv-x="428" d="M197 930q0 84 49 142t127 58q59 0 94 -38.5t35 -100.5q0 -82 -51.5 -141t-124.5 -59q-61 0 -95 39t-34 100z" />
<glyph unicode="&#x2026;" horiz-adv-x="1361" d="M63 0l35 256h146l-35 -256h-146zM608 0l35 256h145l-34 -256h-146zM1153 0l35 256h145l-35 -256h-145z" />
<glyph unicode="&#x2039;" horiz-adv-x="399" d="M123 606l22 154l353 229l-19 -133l-270 -172l221 -180l-18 -139z" />
<glyph unicode="&#x203a;" horiz-adv-x="399" d="M90 365l19 139l270 180l-221 172l18 133l291 -229l-23 -154z" />
<glyph unicode="&#x20ac;" horiz-adv-x="700" d="M104 606l35 119h76l37 264h-94l37 121h75l37 266q25 172 115 250t287 78q113 0 209 -10l-48 -158q-92 12 -178 12q-121 0 -169 -40t-60 -132l-37 -266h319l-38 -121h-299l-37 -264h260l-37 -119h-240l-47 -342q-2 -8 -2 -22q0 -47 27.5 -78t75.5 -31q68 0 97.5 40 t41.5 128l18 125h154l-23 -158q-41 -287 -311 -286q-240 0 -240 217q0 33 7 69l47 338h-95z" />
<glyph unicode="&#x2122;" horiz-adv-x="991" d="M281 1610l10 76h319l-10 -76h-111l-98 -703h-98l98 703h-110zM571 907l109 779h129l20 -609l189 609h131l-109 -779h-88l37 262q27 190 45 304l-184 -566h-86l-27 566l-39 -304l-36 -262h-91z" />
<glyph unicode="&#xe000;" horiz-adv-x="1270" d="M0 1270h1270v-1270h-1270v1270z" />
<glyph unicode="&#xfb01;" horiz-adv-x="692" d="M82 0l160 1143h-62l17 125h61l27 176q33 252 229 252q55 0 90 -13l-16 -120q-23 6 -51 6q-98 0 -115 -129l-25 -172h144l-17 -125h-143l-160 -1143h-139zM471 0l176 1268h141l-176 -1268h-141zM672 1430l35 256h141l-35 -256h-141z" />
<glyph unicode="&#xfb02;" horiz-adv-x="684" d="M82 0l160 1143h-62l17 125h61l27 176q33 252 229 252q55 0 90 -13l-16 -120q-23 6 -51 6q-98 0 -115 -129l-25 -172h144l-17 -125h-143l-160 -1143h-139zM467 0l235 1686h142l-236 -1686h-141z" />
<glyph unicode="&#xfb03;" horiz-adv-x="1083" d="M82 0l160 1143h-62l17 125h61l27 176q33 252 229 252q55 0 90 -13l-16 -120q-23 6 -51 6q-98 0 -115 -129l-25 -172h144l-17 -125h-143l-160 -1143h-139zM473 0l160 1143h-62l17 125h61l27 176q33 252 229 252q55 0 90 -13l-16 -120q-23 6 -51 6q-98 0 -115 -129 l-25 -172h144l-17 -125h-143l-160 -1143h-139zM862 0l176 1268h142l-176 -1268h-142zM1063 1430l35 256h141l-35 -256h-141z" />
<glyph unicode="&#xfb04;" horiz-adv-x="1075" d="M82 0l160 1143h-62l17 125h61l27 176q33 252 229 252q55 0 90 -13l-16 -120q-23 6 -51 6q-98 0 -115 -129l-25 -172h144l-17 -125h-143l-160 -1143h-139zM473 0l160 1143h-62l17 125h61l27 176q33 252 229 252q55 0 90 -13l-16 -120q-23 6 -51 6q-98 0 -115 -129 l-25 -172h144l-17 -125h-143l-160 -1143h-139zM858 0l236 1686h141l-236 -1686h-141z" />
</font>
</defs>
</svg>
